<svg width="18" height="18" viewBox="0 0 18 18" fill="none" xmlns="http://www.w3.org/2000/svg">
<path fill-rule="evenodd" clip-rule="evenodd" d="M12.8117 1.75516C12.4547 1.14439 11.8015 0.767698 11.0941 0.764532L8.01335 0.750743C7.24157 0.747289 6.75696 1.58234 7.14285 2.25073L10.6314 8.29302C10.9886 8.91182 11.6489 9.29302 12.3634 9.29302L15.4753 9.293C16.2475 9.293 16.7283 8.45497 16.3386 7.78832L12.8117 1.75516ZM1.03253 12.0398C0.687363 11.4357 0.680928 10.6957 1.01554 10.0857L4.36513 3.97947C4.73548 3.30434 5.6979 3.28356 6.09705 3.94208L7.75851 6.68317C8.13679 7.30727 8.14511 8.08785 7.78022 8.71986L4.306 14.7374C3.9201 15.4058 2.95462 15.4036 2.57172 14.7335L1.03253 12.0398ZM7.83934 12.0371C8.19776 11.4226 8.85556 11.0448 9.5669 11.0448H16.2436C16.987 11.0448 17.4705 11.8271 17.1381 12.492L15.839 15.0902C15.5002 15.7678 14.8077 16.1958 14.0501 16.1958H7.15445C6.38266 16.1958 5.90178 15.3586 6.29067 14.6919L7.83934 12.0371Z" fill="#AAAAAA" style="fill:#AAAAAA;fill:color(display-p3 0.6667 0.6667 0.6667);fill-opacity:1;"/>
</svg>
