<svg width="24" height="24" viewBox="0 0 24 24" fill="none" xmlns="http://www.w3.org/2000/svg">
<g clip-path="url(#clip0_199_510)">
<path d="M11.6953 2.43523C14.818 2.43523 15.1883 2.44693 16.4212 2.50345C17.696 2.56193 19.0088 2.85236 19.9376 3.78117C20.8752 4.71874 21.1568 6.01887 21.2153 7.29756C21.2718 8.53044 21.2835 8.90079 21.2835 12.0234C21.2835 15.1461 21.2718 15.5164 21.2153 16.7493C21.1578 18.0173 20.8605 19.3428 19.9376 20.2657C19 21.2033 17.7009 21.4849 16.4212 21.5434C15.1883 21.5999 14.818 21.6116 11.6953 21.6116C8.57266 21.6116 8.20231 21.5999 6.96943 21.5434C5.71121 21.4859 4.3682 21.1818 3.45304 20.2657C2.52034 19.333 2.2338 18.0202 2.17533 16.7493C2.1188 15.5164 2.10711 15.1461 2.10711 12.0234C2.10711 8.90079 2.1188 8.53044 2.17533 7.29756C2.23283 6.03446 2.53301 4.7012 3.45304 3.78117C4.38867 2.84554 5.69367 2.56193 6.96943 2.50345C8.20231 2.44693 8.57266 2.43523 11.6953 2.43523ZM11.6953 0.328125C8.51906 0.328125 8.12045 0.34177 6.87295 0.398297C5.06505 0.481139 3.26981 0.984037 1.96286 2.29099C0.651039 3.60281 0.153014 5.39414 0.0701719 7.20107C0.0136445 8.44857 0 8.84719 0 12.0234C0 15.1997 0.0136445 15.5983 0.0701719 16.8458C0.153014 18.6518 0.657861 20.4519 1.96286 21.7559C3.27371 23.0667 5.06797 23.5657 6.87295 23.6486C8.12045 23.7051 8.51906 23.7188 11.6953 23.7188C14.8716 23.7188 15.2702 23.7051 16.5177 23.6486C18.3246 23.5657 20.1218 23.0619 21.4278 21.7559C22.7406 20.4431 23.2376 18.6527 23.3205 16.8458C23.377 15.5983 23.3906 15.1997 23.3906 12.0234C23.3906 8.84719 23.377 8.44857 23.3205 7.20107C23.2376 5.39317 22.7337 3.59696 21.4278 2.29099C20.1189 0.982088 18.3197 0.480164 16.5177 0.398297C15.2702 0.34177 14.8716 0.328125 11.6953 0.328125Z" fill="#9453FF" style="fill:#9453FF;fill:color(display-p3 0.5816 0.3252 1.0000);fill-opacity:1;"/>
<path d="M11.6953 6.01789C8.37872 6.01789 5.68977 8.70684 5.68977 12.0234C5.68977 15.34 8.37872 18.029 11.6953 18.029C15.0119 18.029 17.7009 15.34 17.7009 12.0234C17.7009 8.70684 15.0119 6.01789 11.6953 6.01789ZM11.6953 15.9219C9.5424 15.9219 7.79688 14.1763 7.79688 12.0234C7.79688 9.87053 9.5424 8.125 11.6953 8.125C13.8482 8.125 15.5938 9.87053 15.5938 12.0234C15.5938 14.1763 13.8482 15.9219 11.6953 15.9219Z" fill="#9453FF" style="fill:#9453FF;fill:color(display-p3 0.5816 0.3252 1.0000);fill-opacity:1;"/>
<path d="M17.9387 7.18353C18.7138 7.18353 19.3421 6.55519 19.3421 5.78009C19.3421 5.00499 18.7138 4.37665 17.9387 4.37665C17.1636 4.37665 16.5352 5.00499 16.5352 5.78009C16.5352 6.55519 17.1636 7.18353 17.9387 7.18353Z" fill="#9453FF" style="fill:#9453FF;fill:color(display-p3 0.5816 0.3252 1.0000);fill-opacity:1;"/>
</g>
<defs>
<clipPath id="clip0_199_510">
<rect width="24" height="24" fill="white" style="fill:white;fill-opacity:1;"/>
</clipPath>
</defs>
</svg>
