<svg width="24" height="24" viewBox="0 0 24 24" fill="none" xmlns="http://www.w3.org/2000/svg">
<path d="M19.6644 19.6652H16.4484V14.6288C16.4484 13.4277 16.4271 11.8823 14.7758 11.8823C13.1009 11.8823 12.8443 13.1903 12.8443 14.5422V19.6652H9.62939V9.30792H12.717V10.7229H12.7598C13.3897 9.64696 14.5597 9.00417 15.8057 9.05016C19.0655 9.05016 19.6655 11.1946 19.6655 13.9828L19.6644 19.6652ZM6.00061 7.89186C4.96963 7.89186 4.13436 7.05656 4.13436 6.02554C4.13436 4.99451 4.96963 4.15921 6.00061 4.15921C7.0316 4.15921 7.86687 4.99451 7.86687 6.02554C7.86687 7.05656 7.0316 7.89186 6.00061 7.89186ZM7.60806 19.6652H4.3889V9.30792H7.60806V19.6652ZM21.2676 1.17309H2.7729C1.89913 1.16346 1.18257 1.86401 1.17188 2.73781V21.3091C1.18257 22.184 1.89913 22.8845 2.7729 22.8749H21.2676C22.1435 22.8856 22.8632 22.185 22.875 21.3091V2.73674C22.8622 1.8608 22.1424 1.16026 21.2676 1.17202" fill="#9453FF" style="fill:#9453FF;fill:color(display-p3 0.5816 0.3252 1.0000);fill-opacity:1;"/>
</svg>
